<?xml version="1.0" encoding="UTF-8"?>
<svg width="62px" height="40px" viewBox="0 0 62 40" version="1.1" xmlns="http://www.w3.org/2000/svg" xmlns:xlink="http://www.w3.org/1999/xlink">
    <!-- Generator: sketchtool 53.1 (72631) - https://sketchapp.com -->
    <title>8475DB47-13AB-49E6-88D6-02C9036A62A5</title>
    <desc>Created with sketchtool.</desc>
    <g id="Page-1" stroke="none" stroke-width="1" fill="none" fill-rule="evenodd">
        <g id="main" transform="translate(-408.000000, -1194.000000)">
            <g id="Group-7" transform="translate(408.000000, 1194.000000)">
                <g id="Group-6">
                    <circle id="Oval-Copy-15" fill="#EDEDF0" cx="7.5" cy="7.5" r="7.5"></circle>
                    <path d="M8.08072222,8.41344444 C7.92718056,8.38901389 7.92368056,7.96681944 7.92368056,7.96681944 C7.92368056,7.96681944 8.37484722,7.52018056 8.47318056,6.91958333 C8.73769444,6.91958333 8.90108333,6.28106944 8.63651389,6.05641667 C8.64759722,5.81993056 8.97652778,4.2 7.31111111,4.2 C5.64568056,4.2 5.97465278,5.81993056 5.98566667,6.05641667 C5.721125,6.28106944 5.88448611,6.91958333 6.14901389,6.91958333 C6.24733333,7.52018056 6.69851389,7.96681944 6.69851389,7.96681944 C6.69851389,7.96681944 6.69501389,8.38901389 6.54147222,8.41344444 C6.04688889,8.49213889 4.2,9.30675 4.2,10.2 L7.31111111,10.2 L10.4222222,10.2 C10.4222222,9.30675 8.57531944,8.49213889 8.08072222,8.41344444 Z" id="Path" fill="#9F9FAD"></path>
                </g>
                <g id="Group-6-Copy" transform="translate(47.000000, 25.000000)">
                    <circle id="Oval-Copy-15" fill="#EDEDF0" cx="7.5" cy="7.5" r="7.5"></circle>
                    <path d="M8.08072222,8.41344444 C7.92718056,8.38901389 7.92368056,7.96681944 7.92368056,7.96681944 C7.92368056,7.96681944 8.37484722,7.52018056 8.47318056,6.91958333 C8.73769444,6.91958333 8.90108333,6.28106944 8.63651389,6.05641667 C8.64759722,5.81993056 8.97652778,4.2 7.31111111,4.2 C5.64568056,4.2 5.97465278,5.81993056 5.98566667,6.05641667 C5.721125,6.28106944 5.88448611,6.91958333 6.14901389,6.91958333 C6.24733333,7.52018056 6.69851389,7.96681944 6.69851389,7.96681944 C6.69851389,7.96681944 6.69501389,8.38901389 6.54147222,8.41344444 C6.04688889,8.49213889 4.2,9.30675 4.2,10.2 L7.31111111,10.2 L10.4222222,10.2 C10.4222222,9.30675 8.57531944,8.49213889 8.08072222,8.41344444 Z" id="Path" fill="#9F9FAD"></path>
                </g>
                <rect id="Rectangle" fill="#EDEDF0" x="21" y="0" width="39" height="15" rx="2"></rect>
                <rect id="Rectangle" fill="#BBBBC6" x="27" y="4" width="27" height="3" rx="1.5"></rect>
                <rect id="Rectangle-Copy-56" fill-opacity="0.5" fill="#BBBBC6" x="27" y="8" width="11" height="3" rx="1.5"></rect>
                <rect id="Rectangle-Copy-62" fill="#EDEDF0" x="2" y="25" width="39" height="15" rx="2"></rect>
                <rect id="Rectangle-Copy-61" fill="#BBBBC6" x="8" y="29" width="27" height="3" rx="1.5"></rect>
                <rect id="Rectangle-Copy-60" fill-opacity="0.5" fill="#BBBBC6" x="8" y="33" width="11" height="3" rx="1.5"></rect>
            </g>
        </g>
    </g>
</svg>
