<?xml version="1.0" encoding="UTF-8"?>
<svg width="38px" height="50px" viewBox="0 0 38 50" version="1.1" xmlns="http://www.w3.org/2000/svg" xmlns:xlink="http://www.w3.org/1999/xlink">
    <!-- Generator: sketchtool 53.1 (72631) - https://sketchapp.com -->
    <title>8D02C17F-1C15-44F3-B3CA-B9495E21168E</title>
    <desc>Created with sketchtool.</desc>
    <g id="Page-1" stroke="none" stroke-width="1" fill="none" fill-rule="evenodd">
        <g id="main" transform="translate(-420.000000, -1409.000000)">
            <g id="Group-16" transform="translate(420.000000, 1409.000000)">
                <rect id="Rectangle" fill="#EDEDF0" x="0" y="0" width="38" height="50" rx="2"></rect>
                <g id="check-mark-(2)" transform="translate(12.000000, 21.000000)" fill="#9F9FAD">
                    <path d="M5.45871429,15 C4.99242857,15 4.55142857,14.7818571 4.26792857,14.4077143 L0.439071429,9.35121429 C-0.0589285714,8.69357143 0.0707142857,7.75714286 0.728357143,7.25892857 C1.38707143,6.7605 2.32285714,6.891 2.82107143,7.54821429 L5.33935714,10.8735 L11.673,0.703928571 C12.1090714,0.00428571429 13.0298571,-0.209785714 13.731,0.225642857 C14.4312857,0.6615 14.6451429,1.58292857 14.2088571,2.28321429 L6.72685714,14.2960714 C6.46692857,14.7137143 6.01821429,14.9764286 5.52685714,14.9987143 C5.50392857,14.9995714 5.48142857,15 5.45871429,15 Z" id="Path"></path>
                </g>
                <rect id="Rectangle" fill="#BBBBC6" x="6" y="5" width="24" height="3" rx="1.5"></rect>
                <rect id="Rectangle-Copy-56" fill-opacity="0.5" fill="#BBBBC6" x="6" y="9" width="14" height="3" rx="1.5"></rect>
            </g>
        </g>
    </g>
</svg>
