<?xml version="1.0" encoding="UTF-8"?>
<svg width="41px" height="41px" viewBox="0 0 41 41" version="1.1" xmlns="http://www.w3.org/2000/svg" xmlns:xlink="http://www.w3.org/1999/xlink">
    <!-- Generator: sketchtool 53.1 (72631) - https://sketchapp.com -->
    <title>0D4459DF-5408-43B6-9EB8-FCAAC9F232E0</title>
    <desc>Created with sketchtool.</desc>
    <g id="Page-1" stroke="none" stroke-width="1" fill="none" fill-rule="evenodd">
        <g id="main" transform="translate(-631.000000, -973.000000)">
            <g id="Group-28" transform="translate(631.000000, 973.000000)">
                <circle id="Oval" fill="#EDEDF0" cx="20.5" cy="20.5" r="20.5"></circle>
                <g id="check-mark-(2)" transform="translate(13.000000, 13.000000)" fill="#9F9FAD">
                    <path d="M5.45871429,15 C4.99242857,15 4.55142857,14.7818571 4.26792857,14.4077143 L0.439071429,9.35121429 C-0.0589285714,8.69357143 0.0707142857,7.75714286 0.728357143,7.25892857 C1.38707143,6.7605 2.32285714,6.891 2.82107143,7.54821429 L5.33935714,10.8735 L11.673,0.703928571 C12.1090714,0.00428571429 13.0298571,-0.209785714 13.731,0.225642857 C14.4312857,0.6615 14.6451429,1.58292857 14.2088571,2.28321429 L6.72685714,14.2960714 C6.46692857,14.7137143 6.01821429,14.9764286 5.52685714,14.9987143 C5.50392857,14.9995714 5.48142857,15 5.45871429,15 Z" id="Path"></path>
                </g>
            </g>
        </g>
    </g>
</svg>