<?xml version="1.0" encoding="UTF-8"?>
<svg width="54px" height="57px" viewBox="0 0 54 57" version="1.1" xmlns="http://www.w3.org/2000/svg" xmlns:xlink="http://www.w3.org/1999/xlink">
    <!-- Generator: sketchtool 53.1 (72631) - https://sketchapp.com -->
    <title>83FCFAFB-7F79-4C52-8EC7-1EA471FA271C</title>
    <desc>Created with sketchtool.</desc>
    <g id="Page-1" stroke="none" stroke-width="1" fill="none" fill-rule="evenodd">
        <g id="main" transform="translate(-415.000000, -964.000000)">
            <g id="Group-5" transform="translate(415.000000, 964.000000)">
                <polygon id="Path-22" stroke-opacity="0.3" stroke="#EDEDF0" points="13.266929 19.2289386 10.2089552 43.2551406 43.2911262 33.3352196 16.1641791 9.96336327"></polygon>
                <circle id="Oval" fill="#EDEDF0" cx="15.738806" cy="10.6343284" r="10.6343284"></circle>
                <g id="Group-6" transform="translate(0.000000, 35.731343)">
                    <circle id="Oval-Copy-15" fill="#EDEDF0" cx="10.6343284" cy="10.6343284" r="10.6343284"></circle>
                    <path d="M11.4577405,11.9295108 C11.2400321,11.8948704 11.2350694,11.2962365 11.2350694,11.2962365 C11.2350694,11.2962365 11.8747834,10.6629426 12.0142112,9.8113495 C12.3892682,9.8113495 12.6209391,8.90599399 12.2458033,8.58745647 C12.2615184,8.25214034 12.7279125,5.95522388 10.3665008,5.95522388 C8.00506944,5.95522388 8.4715226,8.25214034 8.4871393,8.58745647 C8.11204291,8.90599399 8.34367434,9.8113495 8.71875104,9.8113495 C8.8581592,10.6629426 9.49789283,11.2962365 9.49789283,11.2962365 C9.49789283,11.2962365 9.49293014,11.8948704 9.27522181,11.9295108 C8.57394693,12.0410925 5.95522388,13.1961381 5.95522388,14.4626866 L10.3665008,14.4626866 L14.7777778,14.4626866 C14.7777778,13.1961381 12.159035,12.0410925 11.4577405,11.9295108 Z" id="Path" fill="#9F9FAD"></path>
                </g>
                <circle id="Oval-Copy-17" fill="#EDEDF0" cx="42.9626866" cy="31.0522388" r="10.6343284"></circle>
                <path d="M43.7860987,32.3474212 C43.5683903,32.3127809 43.5634277,31.714147 43.5634277,31.714147 C43.5634277,31.714147 44.2031416,31.080853 44.3425694,30.22926 C44.7176265,30.22926 44.9492973,29.3239044 44.5741615,29.0053669 C44.5898767,28.6700508 45.0562707,26.3731343 42.694859,26.3731343 C40.3334277,26.3731343 40.7998808,28.6700508 40.8154975,29.0053669 C40.4404011,29.3239044 40.6720325,30.22926 41.0471092,30.22926 C41.1865174,31.080853 41.826251,31.714147 41.826251,31.714147 C41.826251,31.714147 41.8212883,32.3127809 41.60358,32.3474212 C40.9023051,32.4590029 38.2835821,33.6140485 38.2835821,34.880597 L42.694859,34.880597 L47.106136,34.880597 C47.106136,33.6140485 44.4873932,32.4590029 43.7860987,32.3474212 Z" id="Path" fill="#9F9FAD"></path>
                <path d="M18.0581393,11.5010261 L16.7001382,11.1614421 L16.6217933,10.8477294 C17.5586758,10.6899924 18.0407589,10.4092462 18.0620275,10.3968339 C18.1123577,10.3674067 18.1435627,10.3138861 18.1478164,10.2557463 C18.1517212,10.1976064 18.1258333,10.1405466 18.0801058,10.1040243 C18.0737418,10.0990727 17.440286,9.57586375 17.440286,7.7630597 C17.440286,6.23419222 17.0826244,5.45894969 16.3768553,5.45894969 L16.2722901,5.45894969 C16.0177646,5.21294776 15.8267126,5.10447761 15.3134245,5.10447761 C14.6473679,5.10447761 13.186563,5.77409136 13.186563,7.7630597 C13.186563,9.57586375 12.5531072,10.0990727 12.5485046,10.1026119 C12.5013647,10.1380542 12.4747789,10.1944161 12.4776036,10.2532705 C12.4807939,10.3124738 12.5126968,10.3656454 12.5633926,10.3961194 C12.5846612,10.4088806 13.0621416,10.6910392 14.0046902,10.8484273 L13.9263453,11.1614255 L12.5683608,11.5010261 C11.6800306,11.7232836 11.0597015,12.5180168 11.0597015,13.434696 C11.0597015,13.5325318 11.1391099,13.6119403 11.2369455,13.6119403 L19.3899202,13.6119403 C19.4877558,13.6119403 19.5671642,13.5318339 19.5671642,13.4339981 C19.5671476,12.5180168 18.9468185,11.7232836 18.0581393,11.5010261 Z" id="Path" fill="#9F9FAD"></path>
            </g>
        </g>
    </g>
</svg>