<?xml version="1.0" encoding="UTF-8"?>
<svg width="38px" height="33px" viewBox="0 0 38 33" version="1.1" xmlns="http://www.w3.org/2000/svg" xmlns:xlink="http://www.w3.org/1999/xlink">
    <!-- Generator: sketchtool 53.1 (72631) - https://sketchapp.com -->
    <title>93ABED10-91B4-420A-AF69-B3F5352B3713</title>
    <desc>Created with sketchtool.</desc>
    <g id="Page-1" stroke="none" stroke-width="1" fill="none" fill-rule="evenodd">
        <g id="main" transform="translate(-208.000000, -1418.000000)">
            <g id="Group-15" transform="translate(208.000000, 1418.000000)">
                <rect id="Rectangle" fill="#EDEDF0" x="0" y="3" width="38" height="30" rx="2"></rect>
                <rect id="Rectangle" fill="#BBBBC6" transform="translate(10.000000, 3.000000) rotate(-90.000000) translate(-10.000000, -3.000000) " x="7" y="2" width="6" height="2" rx="1"></rect>
                <rect id="Rectangle-Copy-71" fill="#BBBBC6" transform="translate(19.000000, 3.000000) rotate(-90.000000) translate(-19.000000, -3.000000) " x="16" y="2" width="6" height="2" rx="1"></rect>
                <rect id="Rectangle-Copy-72" fill="#BBBBC6" transform="translate(28.000000, 3.000000) rotate(-90.000000) translate(-28.000000, -3.000000) " x="25" y="2" width="6" height="2" rx="1"></rect>
                <rect id="Rectangle" fill-opacity="0.5" fill="#9F9FAD" x="7" y="10" width="6" height="4" rx="1"></rect>
                <rect id="Rectangle-Copy-63" fill-opacity="0.5" fill="#9F9FAD" x="16" y="10" width="6" height="4" rx="1"></rect>
                <rect id="Rectangle-Copy-64" fill-opacity="0.5" fill="#9F9FAD" x="25" y="10" width="6" height="4" rx="1"></rect>
                <rect id="Rectangle-Copy-67" fill-opacity="0.5" fill="#9F9FAD" x="7" y="17" width="6" height="4" rx="1"></rect>
                <rect id="Rectangle-Copy-66" fill-opacity="0.5" fill="#9F9FAD" x="16" y="17" width="6" height="4" rx="1"></rect>
                <rect id="Rectangle-Copy-65" fill-opacity="0.5" fill="#9F9FAD" x="25" y="17" width="6" height="4" rx="1"></rect>
                <rect id="Rectangle-Copy-70" fill-opacity="0.5" fill="#9F9FAD" x="7" y="24" width="6" height="4" rx="1"></rect>
                <rect id="Rectangle-Copy-69" fill-opacity="0.5" fill="#9F9FAD" x="16" y="24" width="6" height="4" rx="1"></rect>
                <rect id="Rectangle-Copy-68" fill-opacity="0.5" fill="#9F9FAD" x="25" y="24" width="6" height="4" rx="1"></rect>
            </g>
        </g>
    </g>
</svg>
