<?xml version="1.0" encoding="UTF-8"?>
<svg width="38px" height="58px" viewBox="0 0 38 58" version="1.1" xmlns="http://www.w3.org/2000/svg" xmlns:xlink="http://www.w3.org/1999/xlink">
    <!-- Generator: sketchtool 53.1 (72631) - https://sketchapp.com -->
    <title>9AF51EEA-C9ED-4613-BB90-7962D943DAAF</title>
    <desc>Created with sketchtool.</desc>
    <g id="Page-1" stroke="none" stroke-width="1" fill="none" fill-rule="evenodd">
        <g id="main" transform="translate(-208.000000, -1185.000000)">
            <g id="settings" transform="translate(206.000000, 1185.000000)">
                <g id="Group-14" transform="translate(6.000000, 14.000000)">
                    <g id="XMLID_610_" fill="#EDEDF0" fill-rule="nonzero">
                        <path d="M28.4623234,17.7974882 L26.6161695,17.0345369 C26.9364207,15.4427002 26.9270016,13.8320251 26.6161695,12.2872841 L28.4717425,11.5243328 C29.1310832,11.2511774 29.4513344,10.4882261 29.178179,9.8288854 L28.3398744,7.81318681 C28.066719,7.15384615 27.3037677,6.83359498 26.644427,7.10675039 L24.788854,7.86970173 C23.9128728,6.56043956 22.7825746,5.41130298 21.4356358,4.50706436 L22.1985871,2.66091052 C22.4717425,2.00156986 22.1609105,1.23861852 21.5015699,0.965463108 L19.4858713,0.127158556 C18.8265306,-0.14599686 18.0635793,0.164835165 17.7904239,0.824175824 L17.0274725,2.67032967 C15.4356358,2.35007849 13.8249608,2.35949765 12.2802198,2.67032967 L11.5172684,0.814756672 C11.244113,0.155416013 10.4811617,-0.164835165 9.82182104,0.108320251 L7.80612245,0.946624804 C7.14678179,1.21978022 6.82653061,1.98273155 7.09968603,2.64207221 L7.86263736,4.49764521 C6.5533752,5.37362637 5.40423862,6.50392465 4.5,7.85086342 L2.65384615,7.08791209 C1.99450549,6.81475667 1.23155416,7.1255887 0.958398744,7.78492936 L0.120094192,9.80062794 C-0.153061224,10.4599686 0.157770801,11.2229199 0.81711146,11.4960754 L2.66326531,12.2590267 C2.34301413,13.8508634 2.35243328,15.4615385 2.66326531,17.0062794 L0.807692308,17.7692308 C0.148351648,18.0423862 -0.171899529,18.8053375 0.101255887,19.4646782 L0.93956044,21.4803768 C1.21271586,22.1397174 1.97566719,22.4599686 2.63500785,22.1868132 L4.49058085,21.4238619 C5.36656201,22.733124 6.49686028,23.8822606 7.84379906,24.7864992 L7.08084772,26.6326531 C6.80769231,27.2919937 7.11852433,28.0549451 7.77786499,28.3281005 L9.79356358,29.166405 C10.4529042,29.4395604 11.2158556,29.1287284 11.489011,28.4693878 L12.2519623,26.6232339 C13.8437991,26.9434851 15.4544741,26.9340659 16.9992151,26.6232339 L17.7621664,28.4788069 C18.0353218,29.1381476 18.7982732,29.4583987 19.4576138,29.1852433 L21.4733124,28.3469388 C22.1326531,28.0737834 22.4529042,27.310832 22.1797488,26.6514914 L21.4167975,24.7959184 C22.7260597,23.9199372 23.8751962,22.7896389 24.7794349,21.4427002 L26.6255887,22.2056515 C27.2849294,22.4788069 28.0478807,22.1679749 28.3210361,21.5086342 L29.1593407,19.4929356 C29.4419152,18.8241758 29.1216641,18.0706436 28.4623234,17.7974882 Z M12.4215071,20.0204082 C9.4544741,18.7959184 8.05102041,15.3956044 9.2755102,12.4285714 C10.5,9.46153846 13.900314,8.05808477 16.8673469,9.28257457 C19.8343799,10.5070644 21.2378336,13.9073783 20.0133438,16.8744113 C18.788854,19.8414443 15.38854,21.244898 12.4215071,20.0204082 Z" id="XMLID_611_"></path>
                    </g>
                    <g id="Group-6" transform="translate(6.000000, 6.000000)">
                        <circle id="Oval-Copy-15" fill="#D5D5DB" cx="8.5" cy="8.5" r="8.5"></circle>
                        <path d="M9.39815185,9.77523704 C9.22413796,9.74754907 9.2201713,9.26906204 9.2201713,9.26906204 C9.2201713,9.26906204 9.73149352,8.7628713 9.84293796,8.08219444 C10.1427204,8.08219444 10.3278944,7.35854537 10.0280491,7.10393889 C10.0406102,6.8359213 10.4133981,5 8.52592593,5 C6.63843796,5 7.01127315,6.8359213 7.02375556,7.10393889 C6.72394167,7.35854537 6.90908426,8.08219444 7.20888241,8.08219444 C7.32031111,8.7628713 7.83164907,9.26906204 7.83164907,9.26906204 C7.83164907,9.26906204 7.82768241,9.74754907 7.65366852,9.77523704 C7.09314074,9.86442407 5,10.78765 5,11.8 L8.52592593,11.8 L12.0518519,11.8 C12.0518519,10.78765 9.95869537,9.86442407 9.39815185,9.77523704 Z" id="Path" fill="#9F9FAD"></path>
                    </g>
                </g>
                <path d="M5.66960077,8.11447811 C14.1640693,-0.37999038 27.9880231,-0.37999038 36.4921116,8.11447811 L36.6267917,8.24915825 L33.9909091,8.24915825 C33.5099086,8.24915825 33.1154882,8.64357864 33.1154882,9.12457912 C33.1154882,9.60557961 33.5099086,10 33.9909091,10 L38.7335738,10 C39.2145743,10 39.6089947,9.60557961 39.6089947,9.12457912 L39.6089947,4.38191438 C39.6089947,3.9009139 39.2145743,3.50649351 38.7335738,3.50649351 C38.2525734,3.50649351 37.858153,3.9009139 37.858153,4.38191438 L37.858153,7.01779702 L37.7234728,6.88311688 C28.5459836,-2.29437229 13.6157287,-2.29437229 4.43823954,6.88311688 C4.1015392,7.21981722 4.1015392,7.77777778 4.43823954,8.11447811 C4.77493987,8.46079846 5.33290043,8.46079846 5.66960077,8.11447811 Z" id="Path" fill="#53526C"></path>
                <path d="M2.99522991,53.6578559 C3.47646186,53.6578559 3.87107207,53.2632457 3.87107207,52.7820137 L3.87107207,50.1448626 L3.99619237,50.2796076 C8.58714521,54.8705604 14.6121693,57.1612245 20.646818,57.1612245 C26.671842,57.1612245 32.7064907,54.8609358 37.2974436,50.2796076 C37.6343059,49.9427452 37.6343059,49.3845161 37.2974436,49.0476537 C36.9605812,48.7107914 36.4023521,48.7107914 36.0654898,49.0476537 C27.5669335,57.5462101 13.7363271,57.5462101 5.22814618,49.0476537 L5.09340123,48.9129088 L7.73055234,48.9129088 C8.21178429,48.9129088 8.60639449,48.5182986 8.60639449,48.0370666 C8.60639449,47.5558347 8.21178429,47.1612245 7.73055234,47.1612245 L2.99522991,47.1612245 C2.51399796,47.1612245 2.11938776,47.5558347 2.11938776,48.0370666 L2.11938776,52.7820137 C2.11938776,53.2632457 2.51399796,53.6578559 2.99522991,53.6578559 Z" id="Path" fill="#53526C"></path>
            </g>
        </g>
    </g>
</svg>
