<svg xmlns="http://www.w3.org/2000/svg" width="73" height="13"><script type="text/javascript" id="zm-extension"/><path d="M6.5 10.779L2.483 13l.767-4.703L0 4.966l4.491-.687L6.5 0l2.009 4.279L13 4.966 9.75 8.297 10.517 13zm15 0L17.483 13l.767-4.703L15 4.966l4.491-.687L21.5 0l2.009 4.279L28 4.966l-3.25 3.331.767 4.703zm15 0L32.483 13l.767-4.703L30 4.966l4.491-.687L36.5 0l2.009 4.279L43 4.966l-3.25 3.331.767 4.703zm15 0L47.483 13l.767-4.703L45 4.966l4.491-.687L51.5 0l2.009 4.279L58 4.966l-3.25 3.331.767 4.703zm15 0L62.483 13l.767-4.703L60 4.966l4.491-.687L66.5 0l2.009 4.279L73 4.966l-3.25 3.331.767 4.703z" fill="#C7C7C7" fill-rule="evenodd"/></svg>