<svg width="39.999" height="39.999" viewBox="0 0 10.583424 10.583426" xmlns="http://www.w3.org/2000/svg"><path d="M5.041 10.576a5.634 5.634 0 0 1-1.66-.33 5.492 5.492 0 0 1-1.204-.617C.937 8.78.154 7.478.02 6.043a4.748 4.748 0 0 1 1.01-3.37 5.246 5.246 0 0 1 2.035-1.56c.002 0 .004.057.004.127v.128l-.072.04a4.522 4.522 0 0 0-.695.483A4.124 4.124 0 0 0 .9 4.285a3.51 3.51 0 0 0-.063.702c0 .203.005.285.026.464a4.05 4.05 0 0 0 1.077 2.29 4.476 4.476 0 0 0 1.318.97l.11.048c.198.09.328.139.57.213.183.056.34.093.57.133.335.06.733.081 1.047.06.066-.006.15-.011.186-.014.036-.002.089-.008.117-.013l.131-.02.097-.013a5.031 5.031 0 0 0 .964-.271A4.377 4.377 0 0 0 8.774 7.6a4.137 4.137 0 0 0 .838-1.586c.094-.345.136-.662.136-1.027 0-.3-.024-.528-.085-.817-.27-1.264-1.143-2.34-2.368-2.916a4.618 4.618 0 0 0-.281-.123l-.041-.015v-.103c0-.057 0-.103.002-.103A5.281 5.281 0 0 1 9.48 2.585c1.03 1.25 1.363 2.89.896 4.407-.568 1.846-2.218 3.218-4.24 3.526a5.753 5.753 0 0 1-1.095.058z" fill="#ff8719"/><path d="M4.592 0l-.095.026-.095.026-.001 4.518c-.001 2.485 0 4.518 0 4.518l.093.016c.167.03.377.054.556.064.042.002.102.005.133.005l.055.001.002-3.54.001-3.54.09-.026a.7.7 0 0 1 .092-.022c.002.002.003 1.605.003 3.563v3.56h.042c.024 0 .054-.002.069-.003l.026-.003V2.006l.048-.014c.082-.023.128-.035.131-.035.002 0 .004 1.619.004 3.598v3.598h.012a.95.95 0 0 0 .071-.009l.06-.009v-7.22l.081-.022.091-.026c.01-.003.01.172.01 3.617 0 1.99.002 3.62.003 3.622.005.004.205-.035.32-.063.113-.027.26-.069.344-.097l.058-.02V3.34l.05-.014.066-.019.019-.005s.002 1.256.002 2.79c0 2.655 0 2.79.01 2.786.005-.002.03-.01.053-.02l.042-.015v-5.57l.063-.017a.955.955 0 0 1 .067-.018c.003 0 .005 1.247.005 2.77 0 1.816.001 2.771.005 2.771.003 0 .028-.01.054-.023l.049-.022V3.206l.041-.012.066-.018.024-.007v2.75c0 1.514.002 2.752.003 2.752a4.447 4.447 0 0 0 1.344-1.05l.048-.056.002-2.097c.001-1.915 0-2.097-.008-2.1a26.992 26.992 0 0 0-.424-.076l-.414-.073-.002-.543c0-.298-.002-.542-.003-.543l-.492-.087-.49-.087-.002-.77c0-.498-.003-.77-.007-.77-.003 0-.539-.094-1.19-.21zm-.444.123l-.013.003-.095.026-.083.023-.001 4.402-.002 4.403.07.02c.039.01.08.023.093.027l.027.008c.003 0 .004-2.005.004-4.455zM3.7.248a.874.874 0 0 0-.094.024l-.094.026-.001 4.26a614.2 614.2 0 0 0 .004 4.264c.003.003.046.022.095.042l.09.036.002-4.325A2190.438 2190.438 0 0 0 3.7.248zM3.257.37c-.003 0-.047.01-.097.025L3.07.42v1.676c0 1.162-.002 1.676-.006 1.676-.003 0-.135-.022-.293-.05l-.287-.05-.045.012-.045.012-.002 2.234-.001 2.233.014.011a4.833 4.833 0 0 0 .852.539c.005 0 .007-.838.007-4.172 0-3.077-.002-4.171-.007-4.171zm-.984 3.36a.233.233 0 0 0-.043.011l-.042.013-.001 2.12-.002 2.12.045.036.044.037.001-2.167a492.284 492.284 0 0 0-.002-2.17zm-.205.055l-.044.013-.044.012v3.977l.044.045.044.045.002-1.024V4.808zm-.205.059a.459.459 0 0 0-.043.01l-.043.013V5.71l-.002 1.844.044.055.044.055.002-1.91a527.854 527.854 0 0 0-.002-1.911z" fill="gray"/></svg>