<svg xmlns="http://www.w3.org/2000/svg" viewBox="0 0 60 39.999081" width="60" height="39.999"><path d="M0 39.48c0-.287.149-.715.33-.953.313-.411.313-.448 0-.765-.647-.654-.208-3.513.472-3.073.45.291.612 2.065.25 2.739-.507.945-.36 1.303.536 1.303.937 0 1.254-.467.744-1.096-.481-.594-.167-2.873.396-2.873.54 0 .886 2.3.413 2.746-.175.166-.32.509-.32.762 0 .697 1.851.646 2.01-.056.076-.33-.039-.717-.316-1.07-.363-.463-.415-.744-.32-1.733.292-3.04 1.636-2.674 1.636.444 0 .565-.15 1.062-.409 1.352-.643.72-.33 1.524.591 1.524h.758V19.334l1.082.095c1.06.093 1.082.113 1.093 1.047.034 2.739.022 2.699.835 2.699.677 0 .752.08.752.793 0 .714-.08.8-.8.85l-.799.055.8.122c1.035.157 1.035.703 0 .775l-.8.055.8.122c1.013.154 1.05.72.047.72-.433 0-.753.152-.753.358 0 .24.249.29.753.155.461-.125.752-.079.752.118 0 .177-.338.321-.752.321-1.003 0-.966.566.047.72l.8.122-.8.055c-.44.03-.8.198-.8.373s.36.334.8.354l.8.037-.708.231c-1.006.33-1.09.648-.17.648 1.03 0 1.017.619-.016.69l-.8.056.8.121c1.035.158 1.035.704 0 .776l-.8.055.8.122c.44.067.799.248.799.402 0 .155-.36.336-.8.403l-.799.121.8.056c.44.03.799.198.799.373 0 .174-.36.342-.8.373l-.799.055.8.122c1.035.157 1.035.703 0 .775l-.8.055.8.122c1.035.157 1.035.704 0 .775l-.8.056.8.121c1.035.158 1.035.704 0 .776l-.8.055.8.122c1.035.157 1.035.704 0 .773l-.8.054.742.128c.408.07.836.347.953.616.116.268.375.434.575.368.353-.116.363-.529.363-13.816 0-7.533.064-13.804.142-13.936.077-.132.14-.93.14-1.774V7.62h.825c.666 0 .843-.122.923-.635.138-.894 1.178-.894 1.317 0 .058.379.256.635.49.635.391 0 .392.03.44 15.472.046 14.445.071 15.479.379 15.579.308.1.329-.555.329-10.195 0-11.608-.047-11.23 1.36-10.887 2.36.575 3.1.58 3.603.025.36-.4.698-.496 1.229-.353l.732.198 1.569-3.682 1.57-3.681.116 7.254c.064 3.99.127 10.432.14 14.317.016 4.47.095 7.063.214 7.063.122 0 .188-4.753.188-13.625 0-7.493.051-13.85.114-14.127.063-.276.232-.502.376-.502.181 0 .262-.4.262-1.3 0-1.032.077-1.333.376-1.465.267-.118.376-.433.376-1.081 0-.704.087-.916.377-.916.348 0 .376-.211.376-2.857C29.53.53 29.582 0 29.812 0c.23 0 .282.53.282 2.857 0 2.328.052 2.857.282 2.857.187 0 .282.315.282.93 0 .724.095.953.424 1.032.331.08.436.342.485 1.21.034.61.152 1.202.261 1.316.131.136.251 4.81.35 13.654.084 7.395.157 13.777.163 14.182.008.578.101.714.433.635l.424-.102.063-10.476c.034-5.762.107-11.655.16-13.095l.099-2.619h6.543v1.27c0 1.056.063 1.27.374 1.27.365 0 .375.264.423 11.825l.05 11.825.516.1.518.1V25.736c0-8.48.065-13.037.188-13.037.103 0 .188.571.188 1.27 0 1.254.008 1.27.705 1.276 1.015.01 2.23 1.044 2.676 2.276.36.995.38 1.582.38 11.13 0 9.868.008 10.08.377 10.08.364 0 .376-.212.376-6.64 0-5.824.044-6.815.358-8.051.218-.858.512-1.478.752-1.584.368-.162.395-.392.395-3.388 0-2.565.057-3.252.282-3.397.16-.105.282-.578.282-1.101v-.919h2.96l.117 1.19c.064.655.117 1.584.118 2.064.001.563.103.873.285.873.21 0 .282-.377.282-1.492 0-.982.063-1.385.185-1.179.114.192.205 4.811.235 11.89l.05 11.574.707.1c.932.13 1.138-.633.427-1.578-.442-.586-.491-.822-.381-1.82.152-1.37.4-1.94.846-1.94.45 0 .75.684.877 2.007.084.879.024 1.231-.291 1.686-.22.317-.398.83-.398 1.14 0 .465.164.564.929.564 1.022 0 1.364-.447.838-1.096-.287-.354-.312-.61-.16-1.645.235-1.61.835-1.715 1.094-.192.138.814.11 1.157-.134 1.612-.533.994-.377 1.321.63 1.321.982 0 1.203-.399.62-1.119-.464-.573-.133-2.849.415-2.849.562 0 .876 2.279.395 2.872-.366.452-.26 1.096.18 1.096.149 0 .271.286.271.635 0 .632-.125.635-30 .635-27.678 0-30-.04-30-.52zm12.367-23.051c-.03-4.06-.054-.738-.054 7.38 0 8.12.024 11.44.054 7.382.03-4.06.03-10.702 0-14.762zm1.021 19.84l.033-2.142.122 2.222c.09 1.658.14.65.196-3.968l.074-6.19.106 6.19c.08 4.662.112 2.978.129-6.826.012-7.158-.042-13.802-.121-14.762-.109-1.327-.159-.414-.21 3.81l-.066 5.555-.108-5.555c-.104-5.396-.11-5.282-.19 3.968l-.084 9.524-.102-9.524-.103-9.524-.086 13.333-.087 13.333-.1-13.333-.1-13.333-.044 14.683c-.044 14.496-.04 14.683.332 14.683.336 0 .38-.23.41-2.143zm1.048-10.316c-.032-2.314-.058-.42-.058 4.206 0 4.627.026 6.52.058 4.206.032-2.313.032-6.099 0-8.412zm.332-16.69c-.053-.09-.118-.103-.143-.03-.026.073-.005 6.704.047 14.735l.094 14.603.049-14.573c.027-8.015.006-14.646-.047-14.735zm.42 7.166c-.03-4.06-.054-.738-.054 7.38 0 8.12.025 11.44.055 7.382.03-4.06.03-10.702 0-14.762zm.377 0c-.03-4.06-.054-.738-.054 7.38 0 8.12.024 11.44.054 7.382.03-4.06.03-10.702 0-14.762zm4.326 7.619c-.032-2.663-.058-.484-.058 4.841 0 5.326.026 7.504.058 4.841.031-2.662.031-7.02 0-9.682zm.564 3.333c-.033-2.051-.06-.373-.06 3.73 0 4.104.027 5.782.06 3.73.032-2.051.032-5.408 0-7.46zm2.066 10.812c-.183-.08-.437-.075-.565.012-.127.087.023.153.333.146.31-.007.415-.077.232-.158zm5.693-12.955c0-8.571-.066-13.175-.188-13.175-.123 0-.188 4.603-.188 13.175 0 8.572.065 13.175.188 13.175.122 0 .188-4.603.188-13.175zm.607 1.19c-.029-6.59-.078-12.555-.109-13.253-.03-.699-.071 4.694-.09 11.984-.017 7.29.031 13.254.11 13.254.077 0 .117-5.393.089-11.984zm.71-1.19c0-8.571-.066-13.175-.189-13.175-.12 0-.188 3-.188 8.362 0 7.969.174 17.987.312 17.987.035 0 .064-5.928.064-13.175zm.73 4.048c-.011-5.02-.082-10.984-.156-13.254-.097-2.965-.144-.393-.167 9.127-.02 8.66.034 13.254.157 13.254.121 0 .18-3.23.166-9.127zm.494-17.166c-.053-.09-.12-.103-.149-.03-.029.072-.008 6.06.047 13.307l.1 13.175.05-13.145c.026-7.23.005-13.218-.048-13.307zm.61 6.552c-.03-3.722-.056-.767-.056 6.566s.025 10.379.055 6.767c.03-3.611.03-9.611 0-13.333zm3.996 19.601c0-.077-.084-.228-.188-.336-.103-.108-.188-.045-.188.14s.085.336.188.336c.104 0 .188-.063.188-.14zm.753-.177c0-.175-.085-.318-.189-.318-.103 0-.188.143-.188.318 0 .174.085.317.188.317.104 0 .189-.143.189-.317zm.752 0c0-.175-.038-.318-.083-.318-.046 0-.135.143-.2.318-.063.174-.026.317.084.317s.199-.143.199-.317zm1.693.177c0-.077-.085-.228-.188-.336-.104-.108-.189-.045-.189.14s.085.336.189.336c.103 0 .188-.063.188-.14zm.752-.177c0-.175-.085-.318-.188-.318-.104 0-.188.143-.188.318 0 .174.084.317.188.317.103 0 .188-.143.188-.317zm9.733-12.76c-.032-2.498-.058-.543-.058 4.346 0 4.89.026 6.934.058 4.543.032-2.39.032-6.39 0-8.889zm.988 1.312c0-7.762-.064-11.698-.188-11.57-.103.109-.188 1.331-.188 2.718 0 1.469-.079 2.52-.188 2.52-.104 0-.188.144-.188.318 0 .175.127.318.282.318.244 0 .282 1.181.282 8.73 0 4.802.042 8.73.094 8.73s.094-5.294.094-11.765zm1.104 5.97a831.458 831.458 0 0 0-.154-11.824c-.116-5.399-.133-4.791-.164 5.794-.022 7.71.032 11.825.154 11.825.12 0 .18-2.116.164-5.794zm-7.039 4.815c-.06-.165-.19-.217-.288-.115-.098.102-.129.321-.068.487.06.165.19.217.288.115.098-.103.129-.322.068-.487zm1.129 0c-.06-.165-.19-.217-.288-.115-.098.102-.13.321-.069.487.061.165.19.217.289.115.098-.103.128-.322.068-.487zm-4.786.027c0-.174-.085-.317-.189-.317-.103 0-.188.143-.188.317 0 .175.085.318.188.318.104 0 .189-.143.189-.318zm12.175.126c-.063-.106-.225-.117-.361-.025-.15.101-.105.176.114.192.198.013.309-.062.247-.167zm-29.902-.345a.935.935 0 0 0-.659 0c-.18.08-.033.146.33.146.361 0 .51-.066.329-.146zm1.551-.098c0-.175-.084-.318-.188-.318-.103 0-.188.143-.188.318 0 .174.085.317.188.317.104 0 .188-.143.188-.317zm.94 0c0-.175-.084-.318-.187-.318-.104 0-.189.143-.189.318 0 .174.085.317.189.317.103 0 .188-.143.188-.317zm.941 0c0-.175-.085-.318-.188-.318s-.188.143-.188.318c0 .174.085.317.188.317s.188-.143.188-.317zm21.76-1.19c-.047-.306-.086-.056-.086.555 0 .61.039.86.086.555a4.359 4.359 0 0 0 0-1.11zm.564 0c-.047-.306-.086-.056-.086.555 0 .61.04.86.086.555a4.359 4.359 0 0 0 0-1.11zm-12.355.872c0-.174-.084-.317-.188-.317-.103 0-.188.143-.188.317 0 .175.085.318.188.318.104 0 .188-.143.188-.318zm.753 0c0-.174-.085-.317-.188-.317-.104 0-.188.143-.188.317 0 .175.084.318.188.318.103 0 .188-.143.188-.318zm2.445 0c0-.174-.085-.317-.188-.317-.104 0-.188.143-.188.317 0 .175.084.318.188.318.103 0 .188-.143.188-.318zm13.542-.317c0-.175-.17-.318-.376-.318-.207 0-.377.143-.377.318 0 .174.17.317.377.317s.376-.143.376-.317zm-30.141-.219a.935.935 0 0 0-.658 0c-.182.08-.033.145.329.145s.51-.065.329-.145zm17.727-.099c0-.174-.085-.317-.188-.317-.104 0-.188.143-.188.317 0 .175.084.318.188.318.103 0 .188-.143.188-.318zm2.445 0c0-.174-.085-.317-.188-.317s-.188.143-.188.317c0 .175.085.318.188.318s.188-.143.188-.318zm1.317 0c0-.174-.127-.317-.283-.317-.155 0-.282.143-.282.317 0 .175.127.318.282.318.156 0 .283-.143.283-.318zm1.128 0c0-.174-.127-.317-.282-.317-.155 0-.282.143-.282.317 0 .175.127.318.282.318.155 0 .282-.143.282-.318zm-22.618-.853a.935.935 0 0 0-.658 0c-.181.08-.033.145.329.145s.51-.065.33-.145zm12.65.078c0-.077-.085-.228-.189-.336-.103-.108-.188-.045-.188.14s.085.336.188.336c.104 0 .188-.063.188-.14zm.751-.177c0-.175-.084-.318-.188-.318-.103 0-.188.143-.188.318 0 .175.085.317.188.317.104 0 .188-.142.188-.317zm.753 0c0-.175-.038-.318-.083-.318-.046 0-.135.143-.2.318-.063.175-.026.317.084.317s.199-.142.199-.317zm1.693.177c0-.077-.085-.228-.188-.336-.104-.108-.189-.045-.189.14s.085.336.189.336c.103 0 .188-.063.188-.14zm.752 0c0-.077-.085-.228-.188-.336-.104-.108-.188-.045-.188.14s.084.336.188.336c.103 0 .188-.063.188-.14zm-15.047-.495c0-.174-.085-.317-.188-.317-.104 0-.188.143-.188.317 0 .175.084.318.188.318.103 0 .188-.143.188-.318zm1.88 0c0-.174-.084-.317-.187-.317-.104 0-.188.143-.188.317 0 .175.084.318.188.318.103 0 .188-.143.188-.318zm16.886-.257c.04-.208-.06-.377-.223-.377-.164 0-.298.226-.298.502 0 .56.405.463.52-.125zm1.171.099c0-.262-.126-.476-.282-.476-.155 0-.282.214-.282.476s.127.476.282.476c.156 0 .282-.214.282-.476zm1.129 0c0-.262-.127-.476-.282-.476-.155 0-.282.214-.282.476s.127.476.282.476c.155 0 .282-.214.282-.476zm4.326-.159c0-.175-.037-.317-.083-.317-.046 0-.135.142-.2.317-.063.175-.026.317.084.317s.199-.142.199-.317zm-27.135-.22c-.183-.08-.437-.075-.564.012-.128.087.022.153.332.146.31-.007.415-.078.232-.158zm25.384-1.288c-.047-.305-.086-.055-.086.556 0 .61.039.86.086.555a4.359 4.359 0 0 0 0-1.11zm.623.537c0-.567-.079-.89-.188-.775-.104.108-.189.545-.189.971 0 .426.085.775.189.775.103 0 .188-.437.188-.971zm4.087.78c-.063-.106-.225-.117-.36-.026-.15.102-.106.177.113.192.198.014.31-.061.247-.167zm-17.253-.444c0-.174-.085-.317-.188-.317-.104 0-.189.143-.189.317 0 .175.085.318.189.318.103 0 .188-.143.188-.318zm.752 0c0-.174-.085-.317-.188-.317-.104 0-.188.143-.188.317 0 .175.085.318.188.318s.188-.143.188-.318zm.752 0c0-.174-.084-.317-.188-.317-.103 0-.188.143-.188.317 0 .175.085.318.188.318.104 0 .188-.143.188-.318zm2.445 0c0-.174-.084-.317-.188-.317-.103 0-.188.143-.188.317 0 .175.085.318.188.318.104 0 .188-.143.188-.318zm-15.047-.317c0-.175-.084-.318-.188-.318-.103 0-.188.143-.188.318 0 .174.085.317.188.317.104 0 .188-.143.188-.317zm.94 0c0-.175-.084-.318-.187-.318-.104 0-.188.143-.188.318 0 .174.084.317.188.317.103 0 .188-.143.188-.317zm.941.177c0-.077-.084-.228-.188-.336-.103-.108-.188-.045-.188.14s.085.336.188.336c.104 0 .188-.063.188-.14zm-3.624-.397c-.183-.08-.437-.076-.564.011-.128.087.022.153.333.147.31-.007.414-.078.231-.158zm20.364-.098c0-.174-.085-.317-.188-.317s-.188.143-.188.317c0 .175.085.318.188.318s.188-.143.188-.318zm1.317 0c0-.174-.127-.317-.282-.317-.156 0-.283.143-.283.317 0 .175.127.318.282.318.156 0 .283-.143.283-.318zm8.413.126c-.063-.106-.225-.117-.36-.025-.15.101-.106.176.113.192.198.013.31-.062.247-.167zm-17.347-.76c.064-.175.026-.318-.083-.318-.11 0-.2.143-.2.317 0 .175.038.318.083.318.046 0 .136-.143.2-.318zm1.598 0c0-.175-.09-.318-.199-.318-.11 0-.147.143-.083.317.064.175.154.318.2.318.045 0 .082-.143.082-.318zm2.351 0c.064-.175.027-.318-.082-.318-.11 0-.2.143-.2.317 0 .175.038.318.083.318.046 0 .135-.143.2-.318zm1.223-.16c0-.261-.085-.476-.188-.476s-.188.215-.188.477c0 .261.084.476.188.476.103 0 .188-.215.188-.476zm-17.492-.158c0-.175-.254-.318-.564-.318-.31 0-.564.143-.564.318 0 .174.253.317.564.317.31 0 .564-.143.564-.317zm29.667.125c-.062-.105-.225-.116-.36-.025-.15.102-.106.177.113.192.198.014.31-.061.247-.167zm-8.413-.601c0-.262-.127-.477-.282-.477-.155 0-.282.215-.282.477s.127.476.282.476c.155 0 .282-.214.282-.476zm1.129 0c0-.262-.127-.477-.283-.477-.155 0-.282.215-.282.477s.127.476.282.476c.156 0 .283-.214.283-.476zm4.326-.02c0-.271-.086-.404-.192-.295-.105.11-.142.333-.083.495.162.44.275.359.275-.2zm1.82-.199c-.06-.253-.104-.178-.113.192-.008.335.036.522.099.417.063-.106.07-.38.015-.609zm-8.592.06c0-.175-.084-.318-.188-.318-.103 0-.188.143-.188.318 0 .175.085.317.188.317.104 0 .188-.142.188-.317zm-18.62-.318c0-.174-.085-.317-.189-.317-.103 0-.188.143-.188.317 0 .175.085.318.188.318.104 0 .188-.143.188-.318zm.94 0c0-.174-.085-.317-.188-.317-.104 0-.188.143-.188.317 0 .175.084.318.188.318.103 0 .188-.143.188-.318zm15.38-.06c-.116-.588-.521-.685-.521-.125 0 .277.134.503.298.503.163 0 .264-.17.223-.377zm7.32-1.13c-.047-.306-.086-.056-.086.556 0 .61.039.86.086.555a4.359 4.359 0 0 0 0-1.111zm.564 0c-.047-.306-.086-.056-.086.556 0 .61.04.86.086.555a4.359 4.359 0 0 0 0-1.111zm4.146 1.316c-.063-.105-.225-.117-.36-.025-.15.101-.106.177.113.192.198.014.31-.062.247-.167zm-30.094-.346c-.183-.08-.437-.075-.565.012-.127.087.023.153.333.147.31-.006.415-.078.232-.159zm12.84-.097c0-.175-.084-.318-.187-.318-.104 0-.189.143-.189.318 0 .174.085.317.189.317.103 0 .188-.143.188-.317zm.753 0c0-.175-.085-.318-.188-.318-.104 0-.188.143-.188.318 0 .174.085.317.188.317s.188-.143.188-.317zm.752 0c0-.175-.084-.318-.188-.318-.103 0-.188.143-.188.318 0 .174.085.317.188.317.104 0 .188-.143.188-.317zm2.445 0c0-.175-.084-.318-.188-.318-.103 0-.188.143-.188.318 0 .174.085.317.188.317.104 0 .188-.143.188-.317zm3.574-.635c0-.175-.085-.317-.188-.317s-.188.142-.188.317c0 .175.085.317.188.317s.188-.142.188-.317zm2.445-.159c0-.262-.127-.476-.282-.476-.155 0-.282.214-.282.476s.127.476.282.476c.155 0 .282-.214.282-.476zm4.326.159c0-.175-.084-.317-.188-.317-.103 0-.188.142-.188.317 0 .175.085.317.188.317.104 0 .188-.142.188-.317zm2.959.126c-.063-.106-.225-.117-.36-.025-.15.1-.106.176.113.191.198.014.31-.061.247-.166zm-30.094-.346c-.183-.08-.437-.075-.565.012-.127.087.023.153.333.146.31-.007.415-.077.232-.158zm1.743-.098c0-.174-.084-.317-.188-.317-.103 0-.188.143-.188.317 0 .175.085.318.188.318s.188-.143.188-.318zm.94 0c0-.174-.084-.317-.187-.317-.104 0-.189.143-.189.317 0 .175.085.318.189.318.103 0 .188-.143.188-.318zm.941.178c0-.077-.085-.228-.188-.336-.103-.108-.188-.045-.188.14s.085.336.188.336.188-.063.188-.14zM7.476 23.268c-.035-1.361-.064-.332-.065 2.287 0 2.62.029 3.733.065 2.475.035-1.258.035-3.4 0-4.762zm27.791 6.573c.064-.175.027-.317-.083-.317s-.2.142-.2.317c0 .175.038.317.084.317.046 0 .135-.142.199-.317zm.846 0c0-.175-.084-.317-.188-.317-.103 0-.188.142-.188.317 0 .175.085.317.188.317.104 0 .188-.142.188-.317zm.753 0c0-.175-.09-.317-.2-.317-.109 0-.146.142-.082.317.064.175.153.317.199.317.046 0 .083-.142.083-.317zm2.35 0c.065-.175.028-.317-.082-.317s-.2.142-.2.317c0 .175.038.317.084.317.045 0 .135-.142.199-.317zm-16.504-.536a.934.934 0 0 0-.658 0c-.181.08-.033.145.329.145s.51-.065.329-.145zm26.944-.099c0-.174-.085-.317-.188-.317-.104 0-.188.143-.188.317 0 .175.084.318.188.318.103 0 .188-.143.188-.318zm-6.583-.317c0-.175-.127-.318-.282-.318-.155 0-.282.143-.282.318 0 .174.127.317.282.317.155 0 .282-.143.282-.317zm1.128 0c0-.175-.127-.318-.282-.318-.155 0-.282.143-.282.318 0 .174.127.317.282.317.155 0 .282-.143.282-.317zm1.129 0c0-.175-.127-.318-.282-.318-.155 0-.282.143-.282.318 0 .174.127.317.282.317.155 0 .282-.143.282-.317zm2.575-1.508c-.048-.306-.086-.056-.086.555 0 .611.038.861.086.556a4.359 4.359 0 0 0 0-1.111zm.565.323c-.048-.309-.09-.133-.094.391-.003.524.035.777.087.562.051-.215.054-.644.007-.953zm-25.757.648a.934.934 0 0 0-.659 0c-.18.08-.033.146.33.146.362 0 .51-.066.329-.146zm12.649.08c0-.078-.085-.229-.188-.337-.104-.108-.189-.045-.189.14s.085.336.189.336c.103 0 .188-.063.188-.14zm.752-.178c0-.175-.085-.318-.188-.318-.104 0-.188.143-.188.318 0 .174.085.317.188.317s.188-.143.188-.317zm.752 0c0-.175-.037-.318-.083-.318-.045 0-.135.143-.199.318-.064.174-.026.317.083.317.11 0 .2-.143.2-.317zm.753 0c0-.175-.038-.318-.083-.318-.046 0-.135.143-.2.318-.063.174-.026.317.083.317.11 0 .2-.143.2-.317zm1.692.177c0-.077-.084-.228-.188-.336-.103-.108-.188-.045-.188.14s.085.336.188.336c.104 0 .188-.063.188-.14zm-15.047-.495c0-.174-.084-.317-.188-.317-.103 0-.188.143-.188.317 0 .175.085.318.188.318.104 0 .188-.143.188-.318zm.94 0c0-.174-.084-.317-.187-.317-.104 0-.188.143-.188.317 0 .175.084.318.188.318.103 0 .188-.143.188-.318zm.847 0c.064-.174.027-.317-.083-.317s-.199.143-.199.317c0 .175.038.318.083.318.046 0 .135-.143.2-.318zm14.39 0c0-.174-.085-.317-.189-.317-.103 0-.188.143-.188.317 0 .175.085.318.188.318.104 0 .188-.143.188-.318zm3.761-.476c0-.262-.127-.476-.282-.476-.155 0-.282.214-.282.476s.127.476.282.476c.155 0 .282-.214.282-.476zm1.129 0c0-.262-.127-.476-.283-.476-.155 0-.282.214-.282.476s.127.476.282.476c.156 0 .283-.214.283-.476zm-22.618-.06a.934.934 0 0 0-.659 0c-.18.08-.033.145.33.145.362 0 .51-.065.329-.145zm29.902.027c-.063-.105-.225-.117-.36-.025-.15.101-.106.177.113.192.198.014.31-.061.247-.167zm-17.253-.443c0-.175-.085-.318-.188-.318-.104 0-.189.143-.189.318 0 .175.085.317.189.317.103 0 .188-.142.188-.317zm.752 0c0-.175-.085-.318-.188-.318-.104 0-.188.143-.188.318 0 .175.084.317.188.317.103 0 .188-.142.188-.317zm.752 0c0-.175-.084-.318-.188-.318-.103 0-.188.143-.188.318 0 .175.085.317.188.317.104 0 .188-.142.188-.317zm.753 0c0-.175-.085-.318-.188-.318-.104 0-.189.143-.189.318 0 .175.085.317.189.317.103 0 .188-.142.188-.317zm1.692 0c0-.175-.084-.318-.188-.318-.103 0-.188.143-.188.318 0 .175.085.317.188.317.104 0 .188-.142.188-.317zm-15.047-.318c0-.174-.084-.317-.188-.317-.103 0-.188.143-.188.317 0 .175.085.318.188.318.104 0 .188-.143.188-.318zm.94 0c0-.174-.084-.317-.187-.317-.104 0-.188.143-.188.317 0 .175.084.318.188.318.103 0 .188-.143.188-.318zm.941.178c0-.077-.084-.228-.188-.336-.103-.108-.188-.045-.188.14s.085.336.188.336c.104 0 .188-.063.188-.14zm14.295-.178c0-.174-.084-.317-.188-.317-.103 0-.188.143-.188.317 0 .175.085.318.188.318.104 0 .188-.143.188-.318zm-17.919-.22c-.183-.08-.437-.075-.564.012-.127.087.022.153.333.147.31-.007.414-.078.231-.159zm30.094.029c-.062-.106-.224-.117-.36-.025-.15.101-.106.176.113.191.199.014.31-.06.247-.166zm-9.541-.443c0-.175-.127-.318-.282-.318-.155 0-.282.143-.282.318 0 .174.127.317.282.317.155 0 .282-.143.282-.317zm1.034 0c-.064-.175-.196-.318-.293-.318-.097 0-.177.143-.177.318 0 .174.132.317.293.317.162 0 .241-.143.177-.317zm1.223 0c0-.175-.127-.318-.282-.318-.155 0-.282.143-.282.318 0 .174.127.317.282.317.155 0 .282-.143.282-.317zm-8.464-.318c0-.175-.085-.317-.188-.317-.104 0-.188.142-.188.317 0 .175.085.318.188.318s.188-.143.188-.318zm.752 0c0-.175-.09-.317-.199-.317-.11 0-.147.142-.083.317.064.175.154.318.2.318.045 0 .082-.143.082-.318zm1.6 0c.063-.175.026-.317-.084-.317s-.199.142-.199.317c0 .175.037.318.083.318.046 0 .135-.143.2-.318zm8.687-1.19c-.048-.306-.086-.056-.086.555 0 .611.038.861.086.556a4.359 4.359 0 0 0 0-1.111zm.565.323c-.048-.309-.09-.133-.094.39-.003.525.035.777.087.562.051-.214.054-.643.007-.952zm-25.95.647c-.182-.08-.436-.075-.564.012-.127.087.023.153.333.146.31-.006.415-.077.232-.158zm30.095.028c-.063-.105-.225-.117-.36-.025-.15.102-.106.177.113.192.198.014.31-.061.247-.167zm-8.456-1.018c.04-.208-.06-.377-.224-.377s-.298.226-.298.502c0 .561.405.463.522-.125zm1.171.099c0-.262-.127-.476-.282-.476-.155 0-.282.214-.282.476s.127.476.282.476c.155 0 .282-.214.282-.476zm-19.185-.159c0-.174-.132-.317-.293-.317-.161 0-.241.143-.177.317.064.175.196.318.293.318.097 0 .177-.143.177-.318zm16.74 0c0-.174-.085-.317-.188-.317s-.188.143-.188.317c0 .175.085.318.188.318s.188-.143.188-.318zm9.73.126c-.063-.106-.225-.117-.36-.025-.15.101-.106.176.113.192.198.013.31-.062.247-.167zm-17.253-.443c0-.175-.085-.318-.188-.318-.104 0-.188.143-.188.318 0 .174.084.317.188.317.103 0 .188-.143.188-.317zm1.504 0c0-.175-.084-.318-.188-.318-.103 0-.188.143-.188.318 0 .174.085.317.188.317.104 0 .188-.143.188-.317zm.753 0c0-.175-.085-.318-.188-.318-.104 0-.188.143-.188.318 0 .174.084.317.188.317.103 0 .188-.143.188-.317zm1.693 0c0-.175-.085-.318-.188-.318-.104 0-.189.143-.189.318 0 .174.085.317.189.317.103 0 .188-.143.188-.317zm11.285-.635c0-.175-.085-.318-.189-.318-.103 0-.188.143-.188.318 0 .174.085.317.188.317.104 0 .189-.143.189-.317zm2.116.107a.451.451 0 0 0-.47 0c-.13.088-.024.16.234.16.26 0 .365-.072.236-.16zm-30.192-.327c-.183-.08-.437-.075-.565.012-.127.087.023.152.333.146.31-.007.415-.078.232-.158zm1.743-.098c0-.174-.085-.317-.188-.317s-.188.143-.188.317c0 .175.084.318.188.318.103 0 .188-.143.188-.318zm1.88 0c0-.174-.126-.317-.281-.317-.155 0-.282.143-.282.317 0 .175.127.318.282.318.155 0 .282-.143.282-.318zm14.437-.079c-.043-.218-.191-.397-.33-.397-.137 0-.285.179-.328.397-.047.236.086.397.329.397.242 0 .376-.16.329-.397zm2.304.08c0-.175-.085-.318-.188-.318-.104 0-.188.143-.188.317 0 .175.085.318.188.318s.188-.143.188-.318zm2.445 0c0-.175-.127-.318-.282-.318-.155 0-.282.143-.282.317 0 .175.127.318.282.318.155 0 .282-.143.282-.318zm-9.31-.318c.064-.175.026-.318-.083-.318-.11 0-.2.143-.2.318 0 .175.038.317.084.317.045 0 .135-.142.199-.317zm1.598 0c0-.175-.09-.318-.199-.318-.11 0-.147.143-.083.318.064.175.154.317.2.317.045 0 .082-.142.082-.317zm1.6 0c.063-.175.026-.318-.084-.318s-.199.143-.199.318c0 .175.037.317.083.317.046 0 .135-.142.2-.317zm-16.697-.538c-.183-.08-.437-.075-.564.012-.127.087.022.153.333.147.31-.007.414-.078.231-.159zM7.838 21.19c-.052-.218-.095-.04-.095.397s.043.615.095.397a2.03 2.03 0 0 0 0-.794zm32.744.635c-.043-.218-.191-.397-.329-.397s-.286.179-.33.397c-.046.236.088.397.33.397.242 0 .376-.16.33-.397zm4.75-.08c0-.261-.128-.475-.283-.475-.155 0-.282.214-.282.476s.127.476.282.476c.155 0 .282-.214.282-.476zm-2.446-.158c0-.175-.084-.317-.188-.317-.103 0-.188.142-.188.317 0 .175.085.318.188.318.104 0 .188-.143.188-.318zm1.129 0c0-.175-.085-.317-.188-.317-.104 0-.188.142-.188.317 0 .175.084.318.188.318.103 0 .188-.143.188-.318zM22.76 20.67c0-.923-.268-1.33-.706-1.072-.129.076-.235.555-.235 1.064 0 .776.076.926.47.926.394 0 .47-.15.47-.918zm13.354.778c0-.077-.085-.228-.188-.336-.104-.108-.188-.045-.188.14s.084.336.188.336c.103 0 .188-.063.188-.14zm.752-.177c0-.175-.085-.318-.188-.318s-.188.143-.188.318c0 .174.085.317.188.317s.188-.143.188-.317zm.752 0c0-.175-.037-.318-.082-.318-.046 0-.136.143-.2.318-.064.174-.026.317.083.317.11 0 .2-.143.2-.317zm1.693.177c0-.077-.084-.228-.188-.336-.103-.108-.188-.045-.188.14s.085.336.188.336c.104 0 .188-.063.188-.14zm13.303-.052c-.062-.105-.224-.116-.36-.025-.15.102-.106.177.113.192.199.014.31-.061.247-.167zm-26.469-.443c0-.174-.132-.317-.293-.317-.161 0-.24.143-.177.317.064.175.196.318.293.318.098 0 .177-.143.177-.318zm24.451-.317c0-.175-.084-.318-.188-.318-.103 0-.188.143-.188.318 0 .174.085.317.188.317.104 0 .188-.143.188-.317zm-7.711-.318c0-.174-.085-.317-.188-.317-.104 0-.189.143-.189.317 0 .175.085.318.189.318.103 0 .188-.143.188-.318zm1.128 0c0-.174-.085-.317-.188-.317s-.188.143-.188.317c0 .175.085.318.188.318.104 0 .188-.143.188-.318zm1.317-.158c0-.262-.127-.477-.282-.477-.156 0-.282.215-.282.477 0 .261.126.476.282.476.155 0 .282-.215.282-.476zm7.284.284c-.062-.106-.224-.117-.36-.025-.15.101-.106.176.113.192.199.013.31-.062.247-.167zM36.115 20c0-.175-.085-.318-.189-.318-.103 0-.188.143-.188.318 0 .174.085.317.188.317.104 0 .188-.143.188-.317zm.752 0c0-.175-.085-.318-.188-.318-.104 0-.189.143-.189.318 0 .174.085.317.189.317.103 0 .188-.143.188-.317zm.752 0c0-.175-.085-.318-.188-.318-.104 0-.188.143-.188.318 0 .174.084.317.188.317.103 0 .188-.143.188-.317zm1.693 0c0-.175-.085-.318-.188-.318-.104 0-.188.143-.188.318 0 .174.084.317.188.317.103 0 .188-.143.188-.317zm-15.047-.318c0-.174-.085-.317-.188-.317-.104 0-.188.143-.188.317 0 .175.084.318.188.318.103 0 .188-.143.188-.318zm.846 0c.064-.174.027-.317-.083-.317s-.199.143-.199.317c0 .175.037.318.083.318.046 0 .135-.143.2-.318zm.94 0c.065-.174.027-.317-.082-.317-.11 0-.2.143-.2.317 0 .175.038.318.083.318.046 0 .136-.143.2-.318zm26.564-.191c-.063-.106-.225-.117-.36-.026-.15.102-.106.177.113.192.198.014.31-.061.247-.166zm-8.413-.761c0-.175-.127-.318-.283-.318-.155 0-.282.143-.282.318 0 .175.127.317.282.317.156 0 .283-.142.283-.317zm-3.762-.503c0-.56-.405-.463-.521.126-.041.207.06.377.223.377.164 0 .298-.226.298-.503zm-15.235-.767c0-.175-.085-.317-.188-.317-.104 0-.188.142-.188.317 0 .175.084.318.188.318.103 0 .188-.143.188-.318zm.94 0c0-.175-.132-.317-.293-.317-.161 0-.24.142-.177.317.064.175.196.318.293.318.098 0 .177-.143.177-.318zm16.74-.159c0-.262-.084-.476-.188-.476-.103 0-.188.214-.188.476s.085.477.188.477c.104 0 .188-.215.188-.477zm-8.464-.158c0-.175-.084-.318-.188-.318-.103 0-.188.143-.188.318 0 .174.085.317.188.317.104 0 .188-.143.188-.317zm1.693 0c0-.175-.085-.318-.188-.318s-.188.143-.188.318c0 .174.085.317.188.317s.188-.143.188-.317zm.752 0c0-.175-.084-.318-.188-.318-.103 0-.188.143-.188.318 0 .174.085.317.188.317.104 0 .188-.143.188-.317zm.753 0c0-.175-.085-.318-.188-.318-.104 0-.188.143-.188.318 0 .174.084.317.188.317.103 0 .188-.143.188-.317zm1.693 0c0-.175-.085-.318-.188-.318-.104 0-.189.143-.189.318 0 .174.085.317.189.317.103 0 .188-.143.188-.317zm1.128-.186c0-.56-.405-.463-.521.126-.04.207.06.377.223.377.164 0 .298-.226.298-.503zm8.969-.509c-.06-.253-.105-.178-.114.192-.008.335.036.522.099.417.062-.106.07-.38.015-.609zm-23.263-.258c0-.174-.127-.317-.282-.317-.156 0-.283.143-.283.317 0 .175.127.318.283.318.155 0 .282-.143.282-.318zm8.276-.317c0-.175-.09-.318-.2-.318-.11 0-.147.143-.083.318.064.174.154.317.2.317.045 0 .083-.143.083-.317zm2.445 0c0-.175-.085-.318-.188-.318-.104 0-.189.143-.189.318 0 .174.085.317.189.317.103 0 .188-.143.188-.317zm.752 0c0-.175-.09-.318-.2-.318-.109 0-.146.143-.082.318.064.174.153.317.2.317.045 0 .082-.143.082-.317zm1.599 0c.064-.175.026-.318-.083-.318-.11 0-.2.143-.2.318 0 .174.038.317.083.317.046 0 .136-.143.2-.317zm-13.072-.953c0-.174-.127-.317-.282-.317-.156 0-.283.143-.283.317 0 .175.127.318.283.318.155 0 .282-.143.282-.318zm8.275-.634c0-.175-.037-.318-.082-.318-.046 0-.136.143-.2.318-.064.174-.026.317.083.317.11 0 .2-.143.2-.317zm1.693.177c0-.077-.084-.228-.188-.336-.103-.108-.188-.045-.188.14s.085.336.188.336c.104 0 .188-.063.188-.14zm.753-.177c0-.175-.085-.318-.188-.318-.104 0-.189.143-.189.318 0 .174.085.317.189.317.103 0 .188-.143.188-.317zm.752 0c0-.175-.037-.318-.083-.318-.046 0-.135.143-.2.318-.063.174-.026.317.084.317s.199-.143.199-.317zm1.693.177c0-.077-.085-.228-.188-.336-.104-.108-.188-.045-.188.14s.084.336.188.336c.103 0 .188-.063.188-.14z" fill="gray"/></svg>