<?xml version="1.0" encoding="UTF-8"?>
<svg width="150px" height="22px" viewBox="0 0 150 22" version="1.1" xmlns="http://www.w3.org/2000/svg" xmlns:xlink="http://www.w3.org/1999/xlink">
<!-- Generator: sketchtool 53.1 (72631) - https://sketchapp.com -->
<title>20A6D35E-EC41-4876-9207-17DA56485963</title>
<desc>Created with sketchtool.</desc>
<g id="Page-1" stroke="none" stroke-width="1" fill="none" fill-rule="evenodd">
    <g id="main" transform="translate(-54.000000, -37.000000)">
        <g id="16545277295965265504.svg" transform="translate(54.000000, 37.000000)">
            <g id="Group" transform="translate(0.000000, 3.000000)" fill="#FFFFFF">
                <path d="M0,13.5884354 L3.45376782,11.7496599 C4.37311609,12.9639456 5.92606925,13.692517 7.65295316,13.692517 C9.20590631,13.692517 10.1625255,13.0680272 10.1625255,12.0503401 C10.1625255,10.9632653 8.32382892,10.7666667 5.901222,10.2809524 C3.00651731,9.72585034 0.111812627,8.67346939 0.124236253,5.58571429 C0.124236253,2.76394558 3.01894094,0.566666667 6.75845214,0.566666667 C10.0755601,0.566666667 12.6099796,1.94285714 14.2374745,3.97823129 L10.7837067,5.68979592 C9.86435845,4.40612245 8.4604888,3.74693878 6.79572301,3.74693878 C5.24276986,3.74693878 4.26130346,4.37142857 4.26130346,5.28503401 C4.26130346,6.33741497 5.21792261,6.49931973 8.10020367,7.03129252 C11.0942974,7.56326531 14.3741344,8.60408163 14.3741344,11.7612245 C14.3741344,14.6870748 11.4794297,16.8843537 7.56598778,16.8843537 C4.13706721,16.8727891 1.55295316,15.5197279 0,13.5884354 Z" id="Path"></path>
                <path d="M19.9399185,8.76598639 C19.9399185,3.97823129 23.3936864,0.624489796 28.2637475,0.624489796 C33.3077393,0.624489796 36.301833,3.74693878 36.301833,8.63877551 L36.301833,10.014966 L24.2384929,10.014966 C24.5242363,12.2469388 26.0771894,13.4959184 28.4376782,13.4959184 C30.9099796,13.4959184 31.9659878,12.4088435 32.5002037,11.1020408 L36.3142566,12.3510204 C35.1464358,14.8489796 32.7114053,16.6877551 28.3755601,16.6877551 C23.1824847,16.6761905 19.9399185,13.5884354 19.9399185,8.76598639 Z M24.1763747,7.19319728 L31.9038697,7.19319728 C31.7299389,4.92653061 30.4254582,3.78163265 28.1643585,3.78163265 C26.0399185,3.78163265 24.4869654,5.03061224 24.1763747,7.19319728 Z" id="Shape" fill-rule="nonzero"></path>
                <polygon id="Path" points="49.0733198 11.7265306 52.7507128 0.925170068 57.1238289 0.925170068 51.0486762 16.4217687 46.9985743 16.4217687 40.612831 0.925170068 45.1226069 0.925170068"></polygon>
                <path d="M61.1739308,8.77755102 C61.1739308,3.98979592 64.6276986,0.636054422 69.4977597,0.636054422 C74.5417515,0.636054422 77.5358452,3.7585034 77.5358452,8.65034014 L77.5358452,10.0265306 L65.4725051,10.0265306 C65.7582485,12.2585034 67.3112016,13.507483 69.6716904,13.507483 C72.1439919,13.507483 73.2,12.4204082 73.7342159,11.1136054 L77.5482688,12.362585 C76.3804481,14.8605442 73.9454175,16.6993197 69.6095723,16.6993197 C64.4164969,16.6877551 61.1739308,13.6 61.1739308,8.77755102 Z M65.410387,7.2047619 L73.1378819,7.2047619 C72.9639511,4.93809524 71.6594705,3.79319728 69.3983707,3.79319728 C67.2863544,3.79319728 65.7334012,5.04217687 65.410387,7.2047619 Z" id="Shape" fill-rule="nonzero"></path>
                <path d="M88.5556008,3.46938776 C89.4376782,1.66530612 91.0651731,0.61292517 93.4256619,0.61292517 C97.0533605,0.61292517 99.2150713,2.87959184 99.2026477,7.14693878 L99.2027009,16.4333333 L94.8295316,16.4333333 L94.8295316,7.36666667 C94.8295316,5.20408163 93.9474542,4.08231293 91.897556,4.08231293 C89.8228106,4.08231293 88.5431772,5.65510204 88.5431772,8.5462585 L88.5431772,16.4217687 L84.1700611,16.4217687 L84.1700611,0.925170068 L88.5431772,0.925170068 L88.5556008,3.46938776 Z" id="Path"></path>
                <path d="M106.023218,15.4619048 C106.023218,7.96802721 117.726273,8.8122449 117.726273,5.43537415 C117.726273,4.39455782 116.632994,3.34217687 113.974338,3.34217687 C111.986558,3.34217687 110.321792,3.94353741 109.067006,6.05986395 L105.9611,4.20952381 C107.663136,1.37619048 110.607536,0.0346938776 114.272505,0.0346938776 C118.981059,0.0346938776 121.937882,2.03537415 121.937882,5.16938776 C121.937882,11.0210884 111.191446,10.2693878 110.483299,13.4959184 L113.241344,13.229932 L121.614868,13.229932 L121.652138,16.4564626 L106.035642,16.4564626 L106.023218,15.4619048 Z" id="Path"></path>
            </g>
            <g id="Group" transform="translate(127.000000, 0.000000)">
                <path d="M15.175,6.62391304 C14.975,6.37282609 14.75,6.10978261 14.475,5.89456522 C13.075,5.29673913 12.2625,5.36847826 12.2625,5.36847826 C12.275,5.3923913 13.125,5.30869565 13.825,6.44456522 C14.1,6.45652174 14.5,6.45652174 15.175,6.62391304 L15.175,6.62391304 Z" id="Path" fill="#FFFFFF" opacity="0.5"></path>
                <path d="M15.95,10.5576087 C15.75,12.0282609 15.2375,13.176087 15.2375,13.176087 C15.775,12.1119565 15.375,11.1076087 14.7125,10.198913 C14.7,9.92391304 14.6625,9.4576087 14.6625,9.4576087 C14.7,9.48152174 15.4375,9.93586957 15.95,10.5576087 L15.95,10.5576087 Z" id="Path" fill="#FFFFFF" opacity="0.5"></path>
                <g>
                    <path d="M10.2625,10.6532609 C10.4125,13.7978261 15,14.0847826 14.75,10.198913 L14.75,10.198913 C14.75,9.93586957 14.7,9.50543478 14.6875,9.4576087 C12.8,8.40543478 10.1625,8.54891304 10.2625,10.6532609 Z" id="Path" fill="#FFFFFF"></path>
                    <path d="M15.375,12.8054348 C15.3375,12.9130435 15.3,13.0206522 15.25,13.1163043 C15.2625,13.1043478 15.2625,13.0923913 15.275,13.0804348 C15.25,13.1402174 15.2375,13.176087 15.2375,13.176087 C15.25,13.1521739 15.25,13.1402174 15.25,13.1163043 C14.4375,14.7184783 11.6875,15.4717391 9.675,14.4315217 C6.0375,11.7054348 9.6125,6.51630435 13.825,6.4326087 L13.825,6.42065217 C13.3375,5.63152174 12.7875,5.41630435 12.4875,5.36847826 C9.25,5.12934783 7,8.1423913 7.05,11.6456522 C7.1,15.7826087 11.95,18.4130435 15.2,14.9576087 C16.875,13.1880435 16.775,11.6456522 15.9625,10.5576087 C15.8125,11.526087 15.5375,12.351087 15.375,12.8054348 Z M16.3875,12.5663043 C16.4,12.5184783 16.4125,12.3630435 16.3875,12.5663043 L16.3875,12.5663043 Z M16.4125,12.0641304 C16.4125,12.0521739 16.4125,12.0521739 16.4125,12.0282609 L16.4125,12.0282609 C16.4125,12.0402174 16.4125,12.0521739 16.4125,12.0641304 Z M16.425,12.398913 L16.425,12.398913 C16.425,12.4945652 16.425,12.4945652 16.425,12.398913 Z M16.3875,11.6815217 C16.3875,11.6576087 16.3875,11.6336957 16.375,11.573913 C16.3875,11.6097826 16.3875,11.6456522 16.3875,11.6815217 C16.3875,11.6815217 16.3875,11.6815217 16.3875,11.6815217 Z" id="Shape" fill="#FFFFFF" fill-rule="nonzero"></path>
                    <path d="M11.475,0.047826087 C5.1375,0.047826087 0,4.96195652 0,11.023913 C0,17.0858696 5.1375,22 11.475,22 C17.8125,22 22.95,17.0858696 22.95,11.023913 C22.95,4.96195652 17.8125,0.047826087 11.475,0.047826087 Z M15.85,6.81521739 C15.7875,6.79130435 15.7625,6.77934783 15.775,6.77934783 C15.725,6.75543478 15.6625,6.73152174 15.6125,6.7076087 C15.6625,6.74347826 15.75,6.77934783 15.85,6.81521739 Z M18.5625,14.6706522 C18.5875,14.6347826 18.5875,14.6347826 18.575,14.6347826 C18.85,14.1565217 18.625,14.5630435 18.5625,14.6706522 Z M5.025,14.1086957 C3.0125,8.57282609 9.075,0.681521739 14.5,5.90652174 C14.5,5.90652174 14.9875,6.36086957 15.175,6.62391304 L15.175,6.62391304 C15.825,6.79130435 16.4625,7.06630435 17.0875,7.52065217 C16.65,7.19782609 16.4375,7.03043478 16.325,6.95869565 C16.525,7.11413043 17.125,7.55652174 17.0875,7.52065217 C25.8,13.8576087 8.75,24.3673913 5.025,14.1086957 Z" id="Shape" fill="#FFFFFF" fill-rule="nonzero"></path>
                    <path d="M15.425,11.6097826 C15.425,11.6097826 15.425,11.6217391 15.425,11.6217391 C15.425,11.6097826 15.425,11.6097826 15.425,11.6097826 L15.425,11.6097826 Z" id="Path" fill="#29345F"></path>
                </g>
            </g>
        </g>
    </g>
</g>
</svg>